<svg width="128" height="128" viewBox="0 0 128 128" fill="none" xmlns="http://www.w3.org/2000/svg">
<g style="mix-blend-mode:multiply">
<path d="M111.576 28H16.4243C12.0451 28 8.49501 31.8956 8.49501 36.701V106.309C8.49501 111.114 12.0451 115.01 16.4243 115.01H111.576C115.955 115.01 119.505 111.114 119.505 106.309V36.701C119.505 31.8956 115.955 28 111.576 28Z" fill="#241F31"/>
<g style="mix-blend-mode:difference" filter="url(#filter0_d_0_3)">
<path d="M16.4243 28.75H111.576C115.477 28.75 118.755 32.2427 118.755 36.701V106.309C118.755 110.767 115.477 114.26 111.576 114.26H16.4243C12.5233 114.26 9.24501 110.767 9.24501 106.309V36.701C9.24501 32.2427 12.5233 28.75 16.4243 28.75Z" stroke="#3D3846" stroke-width="1.5" shape-rendering="crispEdges"/>
</g>
</g>
<line opacity="0.8" y1="-0.375" x2="84" y2="-0.375" transform="matrix(-0.00405156 0.999992 -0.999992 -0.00390434 78.7747 29.5)" stroke="#5E5C64" stroke-width="0.75"/>
<line opacity="0.8" y1="-0.375" x2="84" y2="-0.375" transform="matrix(-0.00419455 0.999991 -0.999992 -0.00404214 108.992 29.5)" stroke="#5E5C64" stroke-width="0.75"/>
<line opacity="0.8" y1="-0.375" x2="84" y2="-0.375" transform="matrix(-0.00405156 0.999992 -0.999992 -0.00390434 18.3403 29.5)" stroke="#5E5C64" stroke-width="0.75"/>
<line opacity="0.8" y1="-0.375" x2="84" y2="-0.375" transform="matrix(-0.00405156 0.999992 -0.999992 -0.00390434 63.6661 29.5)" stroke="#5E5C64" stroke-width="0.75"/>
<line opacity="0.8" y1="-0.375" x2="84" y2="-0.375" transform="matrix(-0.00405156 0.999992 -0.999992 -0.00390434 33.4489 29.5)" stroke="#5E5C64" stroke-width="0.75"/>
<line opacity="0.8" y1="-0.375" x2="84" y2="-0.375" transform="matrix(-0.00405156 0.999992 -0.999992 -0.00390434 93.8833 29.5)" stroke="#5E5C64" stroke-width="0.75"/>
<line opacity="0.8" y1="-0.375" x2="84" y2="-0.375" transform="matrix(-0.00405156 0.999992 -0.999992 -0.00390434 48.5575 29.5)" stroke="#5E5C64" stroke-width="0.75"/>
<path d="M97.6686 47.3067L67.3055 73.5766L52.2941 60.0417L18.6033 89.6413L27.3964 97.4682L52.2455 75.7388L67.1355 89.1656L106.365 55.2634L97.6686 47.3067Z" fill="#2EC27E"/>
<path d="M77.1432 45.75H108.235V73.4253L77.1432 45.75Z" fill="#2EC27E"/>
<defs>
<filter id="filter0_d_0_3" x="4.49501" y="28" width="119.01" height="95.01" filterUnits="userSpaceOnUse" color-interpolation-filters="sRGB">
<feFlood flood-opacity="0" result="BackgroundImageFix"/>
<feColorMatrix in="SourceAlpha" type="matrix" values="0 0 0 0 0 0 0 0 0 0 0 0 0 0 0 0 0 0 127 0" result="hardAlpha"/>
<feOffset dy="4"/>
<feGaussianBlur stdDeviation="2"/>
<feComposite in2="hardAlpha" operator="out"/>
<feColorMatrix type="matrix" values="0 0 0 0 0 0 0 0 0 0 0 0 0 0 0 0 0 0 0.25 0"/>
<feBlend mode="normal" in2="BackgroundImageFix" result="effect1_dropShadow_0_3"/>
<feBlend mode="normal" in="SourceGraphic" in2="effect1_dropShadow_0_3" result="shape"/>
</filter>
</defs>
</svg>
